<svg xmlns="http://www.w3.org/2000/svg" version="1.1" xmlns:xlink="http://www.w3.org/1999/xlink" xmlns:svgjs="http://svgjs.dev/svgjs" width="2000" height="2250" viewBox="0 0 2000 2250"><g transform="matrix(1,0,0,1,0.00014687500004129106,0)"><svg viewBox="0 0 320 360" data-background-color="#dbefed" preserveAspectRatio="xMidYMid meet" height="2250" width="2000" xmlns="http://www.w3.org/2000/svg" xmlns:xlink="http://www.w3.org/1999/xlink"><g id="tight-bounds" transform="matrix(1,0,0,1,0.000023499999997511622,0)"><svg viewBox="0 0 320 360" height="360" width="320"><g><svg></svg></g><g><svg viewBox="0 0 320 360" height="360" width="320"><g><path transform="translate(-74.99272,-51.79039) scale(4.65793,4.65793)" d="M20.6 59.9l0.8 1-0.4-1.3c-0.1-0.6-0.8 0.1-0.4 0.3M21.5 59.3c0.3 0.5 0.6 1 0.6 1.5 0 0.7 0.6 1 1.1 1.2-0.7-0.8-1.1-3-1.7-2.7M59.9 16.9c1.7 0 3.3-0.2 5.1 0.2 4.4 1.1 8.1 3.3 10.6 6.4l7 11.2c0.3 2.8 0.9 5.9 0.8 9.3 0.7 0 0.6-1 1.4-1.2-0.8 2-1.2 4.5-1.4 7.4-0.5-1.6 0-4 0.1-5.3-0.7 1.1-1.1 0.3-1.1-0.2 0.1-0.8-0.3-0.7-0.6-1-1.1-1-1.8-2.1-2.6-3.8 0.5-1.3 0.6-3.2-1-4.2-0.5-0.3-1.1-0.8-1.4-1.6-0.4-1.1-1.1-2.4-0.9-4.1 0.1-0.5-1.5 1.1-2.4 0.4-3.9-2.7-7.8-5.8-12.5-8.4-2.5 0-4.3-0.9-5.2-2-0.8-1-0.2-2.3 1-2.4 0.7 0 1.5-0.2 2.1 0.2 0.1-0.4 0.5-0.9 1-0.9M50 14.6l0.2 0.1c1 0.2 1.5 1.6 2.6 1.1 0 0.7 0.1 1.4-0.1 1.9-0.3 0.8-1.2 0.8-1.9 0.8-6.7-0.4-10.6 2.4-14.7 4.8-1.1 0.7-2.3 1.2-3.2 2.1-4.3 4-9 7.7-10.1 15.1l-0.9 8.2c-0.1 0.9-1.1 1.8-0.9 2.9l0.7 4.9c-0.7-0.7-1.1 0.2-0.9 0.6 0.1 0.3 0.5 1.3 1.1 0.4 0.8 1.5 1.6 4.4 2.7 5.7 3.4 4 7.8 7.6 11.4 11.2 0.9-0.2 1.6-0.2 1.8-0.8 0.3 0.6-0.3 1.2-0.8 1.3 1.6 1 3.4 1.9 5.8 2.1 3.1 0.2 6 0.7 8.7 1.4 1.4-0.4 2.8-0.6 4.3-0.7 0.5 0 0.8-0.8 1.4-1l0.1-1c0.6 0.9 0.5-0.3 0.1-0.9 0.7 0.6 0.9 1.1 1.2 1.5 0-0.3 0.8-1.4 0.8-0.1l0.2-1.3c0.3-0.2 0.4 1.1 0.7 0.2 0.3-0.9 0.9-0.2 1.5-0.5-0.2 0.4-0.1 1.2 0.6 0.7l0.8-0.7c0.5 1.2 1.3 0.7 1.7 0.5 4.4-2.8 8.8-6.1 13-9.4l-0.1 1.3 0.5-1.6c0.5 0.5 0.9 0.1 1.1-0.2 0.6-1 1.4-2 2.7-2.9-1.6 4.3-3.5 7.7-5.9 10.5l-1 1.2c0 0.7-0.2 1.6-1 1.7-0.4 0.1-1.2-0.2-1.8 0.4-0.3 0.4 0.7 1.2-0.1 0.6-0.7-0.5-1.4 0-2.2 0.2-0.6 0.2 0.4 0.8 0.6 1.2 0.2 0.4 0.4 0.8 0.3 1.3l-1.1-1.2c-1.3 0.7-2.1 2-3.2 3-0.5 0.4-0.3 1.1-0.3 1.7-0.7 0-1.5-0.2-1.9 0.2-0.3 0.4-0.2 1-0.2 1.6-1-0.1-1.1-1.6-2-1.3-0.9 0.2-1.9 0.3-2.7 0.8 0.6 1.2-1 0.5-0.8 0.7-1.5-0.9-2.8-1.6-4.4-1-3.4-1.1-7.6-0.6-10.7-0.2 0-0.5 0.1-1-0.1-1.1-0.2 0.5-0.8 0.3-0.7 0.3-1.9-1.3-3.8-2.1-5.8-3.2-1.8 0.2-3.5-0.7-4-1.2-1.4-1.3-3-0.6-4.3-0.9-2.8-0.7-3.8-3.6-4.1-5.6-0.2-1-1-1.4-1.3-1.3-1.3-4.2-3.3-8-4.9-11.9-0.4-1-0.3-2-0.3-3.1 0.5 0.2 1 0.1 0.9-0.6-0.5-3.3-1.7-5.8-3-8.2 0.7-3.4 0.8-7.4 2.4-10.4 1.4-2.7 4-4.1 5.8-6.4 0.6-0.8 0.6-1.9 1.2-2.6 2-2 4-4.1 6.2-5.9 1-0.8 2.2 0 3.7-0.3 0.5-1.8 2.5-3.4 4.4-2.9 0.8 0.2 2.4-1.9 2.9-2.1 0.8-0.3 0.4 0.8 0.4 1.5 1.9-1.5 4.5-2.3 6.9-3.2" fill="#cb1106" fill-rule="nonzero" stroke="none" stroke-width="1" stroke-linecap="butt" stroke-linejoin="miter" stroke-miterlimit="10" stroke-dasharray="" stroke-dashoffset="0" font-family="none" font-weight="none" font-size="none" text-anchor="none" style="mix-blend-mode: normal" data-fill-palette-color="tertiary"></path></g><g transform="matrix(1,0,0,1,129.13641933711267,90)"><svg viewBox="0 0 61.72716132577466 180" height="180" width="61.72716132577466"><g><svg viewBox="0 0 61.72716132577466 180" height="180" width="61.72716132577466"><g><svg viewBox="0 0 108.9539748953975 317.7161408357608" height="180" width="61.72716132577466"><g transform="matrix(1,0,0,1,0,137.71614083576085)"><svg viewBox="0 0 108.9539748953975 180" height="180" width="108.9539748953975"><g id="textblocktransform"><svg viewBox="0 0 108.9539748953975 180" height="180" width="108.9539748953975" id="textblock"><g><svg viewBox="0 0 108.9539748953975 180" height="180" width="108.9539748953975"><g transform="matrix(1,0,0,1,0,0)"><svg width="108.9539748953975" viewBox="1 -35.01 21.19 35.01" height="180" data-palette-color="#cb1106"><g class="wordmark-text-0" data-fill-palette-color="primary" id="text-0"><path d="M22.19-35.01L13.21-16.75 13.21 0 10.06 0 10.06-16.7 1-35.01 4.39-35.01 11.6-20.46 18.8-35.01 22.19-35.01Z" fill="#cb1106" data-fill-palette-color="primary"></path></g></svg></g></svg></g></svg></g></svg></g><g transform="matrix(1,0,0,1,12.056846861924683,0)"><svg viewBox="0 0 84.84028117154813 111.44982083576085" height="111.44982083576085" width="84.84028117154813"><g><svg xmlns="http://www.w3.org/2000/svg" xmlns:xlink="http://www.w3.org/1999/xlink" version="1.1" x="0" y="0" viewBox="14.5 3.3 71.1 93.4" enable-background="new 0 0 100 100" xml:space="preserve" height="111.44982083576085" width="84.84028117154813" class="icon-icon-0" data-fill-palette-color="accent" id="icon-0"><path d="M52.1 84.4V92.5H64.3C65.5 92.5 66.4 93.5 66.4 94.6S65.4 96.7 64.3 96.7H35.7C34.5 96.7 33.6 95.7 33.6 94.6S34.6 92.5 35.7 92.5H47.9V84.4H18.7C16.4 84.4 14.5 82.5 14.5 80.2V39.9C14.5 37.6 16.4 35.7 18.7 35.7H33C34.2 35.7 35.1 36.7 35.1 37.8S34.1 39.9 33 39.9H18.7V80.2H81.3V39.9H67.1C65.9 39.9 65 38.9 65 37.8S66 35.7 67.1 35.7H81.4C83.7 35.7 85.6 37.6 85.6 39.9V80.2C85.6 82.5 83.7 84.4 81.4 84.4zM50.2 3.3C53.7 3.4 56.5 6.3 56.4 9.8 56.3 12.5 54.6 14.8 52.2 15.6V68.5C52.2 69.7 51.2 70.6 50.1 70.6 48.9 70.6 48 69.6 48 68.5V15.6C47.1 15.3 46.2 14.7 45.5 14 44.3 12.8 43.7 11.2 43.7 9.5 43.8 6.1 46.6 3.3 50.1 3.3zM50.1 7.5C48.9 7.5 48 8.4 47.9 9.6 47.9 10.2 48.1 10.7 48.5 11.1S49.4 11.7 50 11.8H50.1C51.2 11.8 52.2 10.9 52.2 9.7 52.1 8.5 51.2 7.6 50.1 7.5M57.2 58.6V25.9C57.2 22.1 60.3 19 64.1 19H68.9C69.8 16.5 72.1 14.8 74.9 14.8 78.4 14.8 81.3 17.7 81.3 21.2S78.4 27.6 74.9 27.6C72.1 27.6 69.8 25.8 68.9 23.4H64.1C62.6 23.4 61.5 24.6 61.5 26V58.7C61.5 59.9 60.5 60.8 59.4 60.8 58.2 60.8 57.2 59.8 57.2 58.6M72.8 21.2C72.8 22.4 73.7 23.3 74.9 23.3S77 22.4 77 21.2 76.1 19 74.9 19 72.8 20 72.8 21.2M38.5 58.6V25.9C38.5 24.4 37.3 23.3 35.9 23.3H31.1C30.2 25.8 27.9 27.5 25.1 27.5 21.6 27.5 18.7 24.6 18.7 21.1S21.6 14.7 25.1 14.7C27.9 14.7 30.2 16.5 31.1 18.9H35.9C39.7 18.9 42.8 22 42.8 25.8V58.5C42.8 59.7 41.8 60.6 40.7 60.6S38.5 59.8 38.5 58.6M27.2 21.2C27.2 20 26.3 19.1 25.1 19.1S23 20 23 21.2 23.9 23.3 25.1 23.3 27.2 22.3 27.2 21.2" fill="#f64d08" data-fill-palette-color="accent"></path></svg></g></svg></g><g></g></svg></g></svg></g></svg></g></svg></g><defs></defs></svg><rect width="320" height="360" fill="none" stroke="none" visibility="hidden"></rect></g></svg></g></svg>